<svg width="53" height="65" viewBox="0 0 53 65" fill="none" xmlns="http://www.w3.org/2000/svg">
<path d="M36.5288 0H10.4221C6.60805 0 3.50392 3.10629 3.50392 6.91806V32.4999H2.82809C1.28876 32.4999 0.0405064 33.747 0.0405064 35.2877V52.1941C0.0405064 53.7347 1.28876 54.9817 2.82809 54.9817H3.50392V58.0818C3.50392 61.8978 6.60805 64.9999 10.422 64.9999H46.0431C49.8549 64.9999 52.959 61.8976 52.959 58.0818V16.3732L36.5288 0ZM4.65228 37.6099C5.62659 37.4549 6.89588 37.3676 8.23581 37.3676C10.4624 37.3676 11.9063 37.7672 13.0377 38.6191C14.2552 39.5243 15.02 40.9692 15.02 43.0388C15.02 45.2824 14.203 46.8313 13.0716 47.7875C11.8371 48.8135 9.95795 49.3003 7.66217 49.3003C6.28759 49.3003 5.31328 49.2132 4.65241 49.1261V37.6099H4.65228ZM46.0432 60.7631H10.4221C8.94521 60.7631 7.74266 59.5606 7.74266 58.0818V54.9817H40.9491C42.4884 54.9817 43.7369 53.7347 43.7369 52.1941V35.2877C43.7369 33.747 42.4886 32.4999 40.9491 32.4999H7.74266V6.91806C7.74266 5.44345 8.94521 4.24089 10.4221 4.24089L34.9437 4.21528V13.2793C34.9437 15.9268 37.0919 18.077 39.7411 18.077L48.6205 18.0515L48.7204 58.0817C48.7205 59.5606 47.5199 60.7631 46.0432 60.7631ZM16.2267 43.404C16.2267 39.8899 18.4706 37.2636 21.9328 37.2636C25.5343 37.2636 27.4996 39.9599 27.4996 43.1957C27.4996 47.0395 25.1688 49.3703 21.7415 49.3703C18.2625 49.3703 16.2267 46.7443 16.2267 43.404ZM35.2475 47.1607C36.0475 47.1607 36.9344 46.9863 37.4571 46.778L37.8566 48.8477C37.37 49.0922 36.2737 49.3534 34.848 49.3534C30.794 49.3534 28.7065 46.8313 28.7065 43.4914C28.7065 39.4903 31.56 37.2637 35.1081 37.2637C36.4829 37.2637 37.5261 37.542 37.9957 37.7842L37.457 39.8899C36.9173 39.6623 36.1693 39.4543 35.2303 39.4543C33.1247 39.4543 31.4899 40.725 31.4899 43.334C31.49 45.6819 32.8815 47.1607 35.2475 47.1607Z" fill="#838383"/>
<path d="M12.2024 43.1258C12.2194 40.6888 10.7928 39.4034 8.51389 39.4034C7.92205 39.4034 7.53958 39.4543 7.31336 39.5073V47.1776C7.53958 47.2309 7.9052 47.2309 8.23563 47.2309C10.6366 47.2477 12.2024 45.9261 12.2024 43.1258Z" fill="#838383"/>
<path d="M24.6993 43.2809C24.6993 41.1774 23.69 39.3672 21.8637 39.3672C20.0716 39.3672 19.0272 41.0732 19.0272 43.351C19.0272 45.6479 20.1065 47.2647 21.8808 47.2647C23.6731 47.2647 24.6993 45.5605 24.6993 43.2809Z" fill="#838383"/>
</svg>
